<svg width="790" height="1223" viewBox="0 0 790 1223" fill="none" xmlns="http://www.w3.org/2000/svg">
<rect width="790" height="1223" fill="#F5F5F5"/>
<rect id="primary-board" x="785.649" y="1148.42" width="755" height="1144" rx="33.5" transform="rotate(180 785.649 1148.42)" fill="#8CC04B" stroke="black" stroke-width="7"/>
<rect id="pin-layout" x="751.649" y="995.415" width="119" height="911" rx="22.5" transform="rotate(180 751.649 995.415)" fill="#D9D9D9" stroke="black" stroke-width="5"/>
<ellipse id="pin-040" cx="722.149" cy="942.415" rx="15" ry="15.5" transform="rotate(-180 722.149 942.415)" fill="black"/>
<ellipse id="pin-039" cx="663.149" cy="942.415" rx="15" ry="15.5" transform="rotate(-180 663.149 942.415)" fill="black"/>
<ellipse id="pin-038" cx="722.149" cy="898.415" rx="15" ry="15.5" transform="rotate(-180 722.149 898.415)" fill="black"/>
<ellipse id="pin-037" cx="663.149" cy="898.415" rx="15" ry="15.5" transform="rotate(-180 663.149 898.415)" fill="black"/>
<ellipse id="pin-036" cx="722.149" cy="854.415" rx="15" ry="15.5" transform="rotate(-180 722.149 854.415)" fill="black"/>
<ellipse id="pin-035" cx="663.149" cy="855.415" rx="15" ry="15.5" transform="rotate(-180 663.149 855.415)" fill="black"/>
<ellipse id="pin-034" cx="722.149" cy="811.415" rx="15" ry="15.5" transform="rotate(-180 722.149 811.415)" fill="black"/>
<ellipse id="pin-033" cx="663.149" cy="811.415" rx="15" ry="15.5" transform="rotate(-180 663.149 811.415)" fill="black"/>
<ellipse id="pin-032" cx="722.149" cy="767.415" rx="15" ry="15.5" transform="rotate(-180 722.149 767.415)" fill="black"/>
<ellipse id="pin-031" cx="663.149" cy="768.415" rx="15" ry="15.5" transform="rotate(-180 663.149 768.415)" fill="black"/>
<ellipse id="pin-030" cx="722.149" cy="724.415" rx="15" ry="15.5" transform="rotate(-180 722.149 724.415)" fill="black"/>
<ellipse id="pin-029" cx="663.149" cy="724.415" rx="15" ry="15.5" transform="rotate(-180 663.149 724.415)" fill="black"/>
<ellipse id="pin-028" cx="722.149" cy="680.415" rx="15" ry="15.5" transform="rotate(-180 722.149 680.415)" fill="black"/>
<ellipse id="pin-027" cx="664.149" cy="680.415" rx="15" ry="15.5" transform="rotate(-180 664.149 680.415)" fill="black"/>
<ellipse id="pin-026" cx="722.149" cy="637.415" rx="15" ry="15.5" transform="rotate(-180 722.149 637.415)" fill="black"/>
<ellipse id="pin-025" cx="663.149" cy="637.415" rx="15" ry="15.5" transform="rotate(-180 663.149 637.415)" fill="black"/>
<ellipse id="pin-024" cx="722.149" cy="593.415" rx="15" ry="15.5" transform="rotate(-180 722.149 593.415)" fill="black"/>
<ellipse id="pin-023" cx="663.149" cy="593.415" rx="15" ry="15.5" transform="rotate(-180 663.149 593.415)" fill="black"/>
<ellipse id="pin-022" cx="722.149" cy="550.415" rx="15" ry="15.5" transform="rotate(-180 722.149 550.415)" fill="black"/>
<ellipse id="pin-021" cx="663.149" cy="550.415" rx="15" ry="15.5" transform="rotate(-180 663.149 550.415)" fill="black"/>
<ellipse id="pin-020" cx="722.149" cy="506.415" rx="15" ry="15.5" transform="rotate(-180 722.149 506.415)" fill="black"/>
<ellipse id="pin-019" cx="663.149" cy="506.415" rx="15" ry="15.5" transform="rotate(-180 663.149 506.415)" fill="black"/>
<circle id="pin-018" cx="722.149" cy="462.915" r="15" transform="rotate(-180 722.149 462.915)" fill="black"/>
<ellipse id="pin-017" cx="663.149" cy="463.415" rx="15" ry="15.5" transform="rotate(-180 663.149 463.415)" fill="black"/>
<ellipse id="pin-016" cx="722.149" cy="419.415" rx="15" ry="15.5" transform="rotate(-180 722.149 419.415)" fill="black"/>
<ellipse id="pin-015" cx="663.149" cy="419.415" rx="15" ry="15.5" transform="rotate(-180 663.149 419.415)" fill="black"/>
<ellipse id="pin-014" cx="722.149" cy="375.415" rx="15" ry="15.5" transform="rotate(-180 722.149 375.415)" fill="black"/>
<ellipse id="pin-013" cx="663.149" cy="376.415" rx="15" ry="15.5" transform="rotate(-180 663.149 376.415)" fill="black"/>
<ellipse id="pin-012" cx="722.149" cy="332.415" rx="15" ry="15.5" transform="rotate(-180 722.149 332.415)" fill="black"/>
<ellipse id="pin-011" cx="663.149" cy="332.415" rx="15" ry="15.5" transform="rotate(-180 663.149 332.415)" fill="black"/>
<ellipse id="pin-010" cx="722.149" cy="288.415" rx="15" ry="15.5" transform="rotate(-180 722.149 288.415)" fill="black"/>
<ellipse id="pin-009" cx="663.149" cy="288.415" rx="15" ry="15.5" transform="rotate(-180 663.149 288.415)" fill="black"/>
<ellipse id="pin-008" cx="722.149" cy="245.415" rx="15" ry="15.5" transform="rotate(-180 722.149 245.415)" fill="black"/>
<ellipse id="pin-007" cx="663.149" cy="245.415" rx="15" ry="15.5" transform="rotate(-180 663.149 245.415)" fill="black"/>
<ellipse id="pin-006" cx="722.149" cy="201.415" rx="15" ry="15.5" transform="rotate(-180 722.149 201.415)" fill="black"/>
<ellipse id="pin-005" cx="663.149" cy="201.415" rx="15" ry="15.5" transform="rotate(-180 663.149 201.415)" fill="black"/>
<ellipse id="pin-004" cx="722.149" cy="157.415" rx="15" ry="15.5" transform="rotate(-180 722.149 157.415)" fill="black"/>
<ellipse id="pin-003" cx="663.149" cy="157.415" rx="15" ry="15.5" transform="rotate(-180 663.149 157.415)" fill="black"/>
<circle id="pin-002" cx="722.149" cy="113.915" r="15" transform="rotate(-180 722.149 113.915)" fill="black"/>
<ellipse id="pin-001" cx="664.149" cy="115.415" rx="15" ry="15.5" transform="rotate(-180 664.149 115.415)" fill="black"/>
<rect id="Ethernet" x="768.149" y="1216.92" width="207" height="187" rx="8" transform="rotate(180 768.149 1216.92)" fill="#C0BCBC" stroke="black" stroke-width="4"/>
<rect id="USB-1" x="441.149" y="1219.92" width="143" height="151" rx="12" transform="rotate(180 441.149 1219.92)" fill="#D9D9D9" stroke="black" stroke-width="4"/>
<rect id="USB-2" x="236.149" y="1220.92" width="143" height="151" rx="12" transform="rotate(180 236.149 1220.92)" fill="#D9D9D9" stroke="black" stroke-width="4"/>
<rect id="power-port " x="65.1488" y="145.915" width="63" height="79" rx="22" transform="rotate(180 65.1488 145.915)" fill="#6A6A6A" stroke="white" stroke-width="4"/>
<rect id="micro-hdmi 2" x="66.1488" y="385.915" width="63" height="48" transform="rotate(180 66.1488 385.915)" fill="#6C6A6A" stroke="white" stroke-width="4"/>
<rect id="micro-hdmi 1" x="66.1488" y="276.915" width="63" height="47" transform="rotate(180 66.1488 276.915)" fill="#6C6A6A" stroke="white" stroke-width="4"/>
<line id="a/v-port" x1="95.1488" y1="564.415" x2="6.14884" y2="564.415" stroke="black" stroke-width="59"/>
<g id="dsi-display port">
<rect id="Rectangle 9" x="561.581" y="113.507" width="279.408" height="54.4305" transform="rotate(180 561.581 113.507)" fill="white" stroke="black" stroke-width="4"/>
<line id="Line 2" x1="559.581" y1="96.2921" x2="284.173" y2="96.2921" stroke="black" stroke-width="20"/>
</g>
<g id="csi-camera port">
<rect id="Rectangle 10" x="328.089" y="516.477" width="279.408" height="54.4305" transform="rotate(180 328.089 516.477)" fill="white" stroke="black" stroke-width="4"/>
<line id="Line 3" x1="326.089" y1="499.262" x2="50.6814" y2="499.262" stroke="black" stroke-width="20"/>
</g>
</svg>
