<svg width="1384" height="2126" viewBox="0 0 1384 2126" fill="none" xmlns="http://www.w3.org/2000/svg">
<rect width="1384" height="2126" fill="#F5F5F5"/>
<rect x="1380.29" y="1995.42" width="1327" height="1991" rx="33.5" transform="rotate(180 1380.29 1995.42)" fill="#8CC04B" stroke="black" stroke-width="7"/>
<rect x="1321.88" y="1728.71" width="207" height="1586" rx="22.5" transform="rotate(180 1321.88 1728.71)" fill="#D9D9D9" stroke="black" stroke-width="5"/>
<ellipse cx="1270.5" cy="1638.01" rx="26.5" ry="27" transform="rotate(-180 1270.5 1638.01)" fill="black"/>
<ellipse cx="1167.5" cy="1638" rx="26.5" ry="27" transform="rotate(-180 1167.5 1638)" fill="black"/>
<ellipse cx="1270.5" cy="1562" rx="26.5" ry="27" transform="rotate(-180 1270.5 1562)" fill="black"/>
<ellipse cx="1167.5" cy="1562.35" rx="26.5" ry="27" transform="rotate(-180 1167.5 1562.35)" fill="black"/>
<ellipse cx="1270.5" cy="1486" rx="26.5" ry="27" transform="rotate(-180 1270.5 1486)" fill="black"/>
<ellipse cx="1167.5" cy="1486.35" rx="26.5" ry="27" transform="rotate(-180 1167.5 1486.35)" fill="black"/>
<ellipse cx="1270.5" cy="1409.99" rx="26.5" ry="27" transform="rotate(-180 1270.5 1409.99)" fill="black"/>
<ellipse cx="1167.5" cy="1410.34" rx="26.5" ry="27" transform="rotate(-180 1167.5 1410.34)" fill="black"/>
<ellipse cx="1270.5" cy="1333.99" rx="26.5" ry="27" transform="rotate(-180 1270.5 1333.99)" fill="black"/>
<ellipse cx="1167.5" cy="1334.35" rx="26.5" ry="27" transform="rotate(-180 1167.5 1334.35)" fill="black"/>
<ellipse cx="1270.5" cy="1257.99" rx="26.5" ry="27" transform="rotate(-180 1270.5 1257.99)" fill="black"/>
<ellipse cx="1167.5" cy="1258.34" rx="26.5" ry="27" transform="rotate(-180 1167.5 1258.34)" fill="black"/>
<ellipse cx="1270.5" cy="1181.99" rx="26.5" ry="27" transform="rotate(-180 1270.5 1181.99)" fill="black"/>
<ellipse cx="1169.08" cy="1182.35" rx="26.5" ry="27" transform="rotate(-180 1169.08 1182.35)" fill="black"/>
<ellipse cx="1270.5" cy="1106" rx="26.5" ry="27" transform="rotate(-180 1270.5 1106)" fill="black"/>
<ellipse cx="1167.5" cy="1106.35" rx="26.5" ry="27" transform="rotate(-180 1167.5 1106.35)" fill="black"/>
<ellipse cx="1270.5" cy="1030" rx="26.5" ry="27" transform="rotate(-180 1270.5 1030)" fill="black"/>
<ellipse cx="1167.5" cy="1030.35" rx="26.5" ry="27" transform="rotate(-180 1167.5 1030.35)" fill="black"/>
<ellipse cx="1270.5" cy="953.996" rx="26.5" ry="27" transform="rotate(-180 1270.5 953.996)" fill="black"/>
<ellipse cx="1167.5" cy="954.347" rx="26.5" ry="27" transform="rotate(-180 1167.5 954.347)" fill="black"/>
<ellipse cx="1270.5" cy="877.997" rx="26.5" ry="27" transform="rotate(-180 1270.5 877.997)" fill="black"/>
<ellipse cx="1167.5" cy="878.354" rx="26.5" ry="27" transform="rotate(-180 1167.5 878.354)" fill="black"/>
<ellipse cx="1270.5" cy="801.994" rx="26.5" ry="27" transform="rotate(-180 1270.5 801.994)" fill="black"/>
<ellipse cx="1167.5" cy="802.344" rx="26.5" ry="27" transform="rotate(-180 1167.5 802.344)" fill="black"/>
<ellipse cx="1270.5" cy="725.994" rx="26.5" ry="27" transform="rotate(-180 1270.5 725.994)" fill="black"/>
<ellipse cx="1167.5" cy="726.351" rx="26.5" ry="27" transform="rotate(-180 1167.5 726.351)" fill="black"/>
<ellipse cx="1270.5" cy="649.995" rx="26.5" ry="27" transform="rotate(-180 1270.5 649.995)" fill="black"/>
<ellipse cx="1167.5" cy="650.345" rx="26.5" ry="27" transform="rotate(-180 1167.5 650.345)" fill="black"/>
<ellipse cx="1270.5" cy="573.995" rx="26.5" ry="27" transform="rotate(-180 1270.5 573.995)" fill="black"/>
<ellipse cx="1167.5" cy="574.352" rx="26.5" ry="27" transform="rotate(-180 1167.5 574.352)" fill="black"/>
<ellipse cx="1270.5" cy="497.999" rx="26.5" ry="27" transform="rotate(-180 1270.5 497.999)" fill="black"/>
<ellipse cx="1167.5" cy="498.349" rx="26.5" ry="27" transform="rotate(-180 1167.5 498.349)" fill="black"/>
<ellipse cx="1270.5" cy="422" rx="26.5" ry="27" transform="rotate(-180 1270.5 422)" fill="black"/>
<ellipse cx="1167.5" cy="422.356" rx="26.5" ry="27" transform="rotate(-180 1167.5 422.356)" fill="black"/>
<ellipse cx="1270.5" cy="346" rx="26.5" ry="27" transform="rotate(-180 1270.5 346)" fill="black"/>
<ellipse cx="1167.5" cy="346.35" rx="26.5" ry="27" transform="rotate(-180 1167.5 346.35)" fill="black"/>
<ellipse cx="1270.5" cy="269.035" rx="26.5" ry="27" transform="rotate(-180 1270.5 269.035)" fill="black"/>
<ellipse cx="1167.5" cy="269.392" rx="26.5" ry="27" transform="rotate(-180 1167.5 269.392)" fill="black"/>
<ellipse cx="1270.5" cy="193" rx="26.5" ry="27" transform="rotate(-180 1270.5 193)" fill="black"/>
<ellipse cx="1168.5" cy="196.35" rx="26.5" ry="27" transform="rotate(-180 1168.5 196.35)" fill="black"/>
<rect x="1353" y="2119" width="367" height="329" rx="8" transform="rotate(180 1353 2119)" fill="#C0BCBC" stroke="black" stroke-width="4"/>
<rect x="772.998" y="2122" width="249" height="261" rx="12" transform="rotate(180 772.998 2122)" fill="#D9D9D9" stroke="black" stroke-width="4"/>
<rect x="412" y="2123.23" width="249" height="261" rx="12" transform="rotate(180 412 2123.23)" fill="#D9D9D9" stroke="black" stroke-width="4"/>
<rect x="110.149" y="248.156" width="108" height="136" rx="22" transform="rotate(180 110.149 248.156)" fill="#6A6A6A" stroke="white" stroke-width="4"/>
<rect x="111.665" y="666.154" width="108" height="80" transform="rotate(180 111.665 666.154)" fill="#6C6A6A" stroke="white" stroke-width="4"/>
<rect x="111.019" y="476.155" width="108" height="80" transform="rotate(180 111.019 476.155)" fill="#6C6A6A" stroke="white" stroke-width="4"/>
<line x1="164.729" y1="957.06" x2="6.64959" y2="957.06" stroke="black" stroke-width="59"/>
<rect x="986.033" y="190.828" width="490" height="92" transform="rotate(180 986.033 190.828)" fill="white" stroke="black" stroke-width="4"/>
<line x1="984.033" y1="154.828" x2="498.033" y2="154.828" stroke="black" stroke-width="20"/>
<rect x="574" y="894" width="490" height="92" transform="rotate(180 574 894)" fill="white" stroke="black" stroke-width="4"/>
<line x1="572" y1="858" x2="86" y2="858" stroke="black" stroke-width="20"/>
<path d="M572.516 390.469C581.359 390.469 587.812 392.375 591.875 396.188C595.938 399.969 597.969 405.188 597.969 411.844C597.969 414.844 597.516 417.719 596.609 420.469C595.703 423.188 594.219 425.609 592.156 427.734C590.125 429.859 587.406 431.547 584 432.797C580.594 434.016 576.391 434.625 571.391 434.625H565.156V459H550.625V390.469H572.516ZM571.766 402.375H565.156V422.719H569.938C572.656 422.719 575.016 422.359 577.016 421.641C579.016 420.922 580.562 419.797 581.656 418.266C582.75 416.734 583.297 414.766 583.297 412.359C583.297 408.984 582.359 406.484 580.484 404.859C578.609 403.203 575.703 402.375 571.766 402.375ZM610.906 459V390.469H625.438V459H610.906ZM671.703 459L655.203 405.234H654.781C654.844 406.516 654.938 408.453 655.062 411.047C655.219 413.609 655.359 416.344 655.484 419.25C655.609 422.156 655.672 424.781 655.672 427.125V459H642.688V390.469H662.469L678.688 442.875H678.969L696.172 390.469H715.953V459H702.406V426.562C702.406 424.406 702.438 421.922 702.5 419.109C702.594 416.297 702.703 413.625 702.828 411.094C702.953 408.531 703.047 406.609 703.109 405.328H702.688L685.016 459H671.703ZM795.453 424.641C795.453 429.922 794.797 434.734 793.484 439.078C792.172 443.391 790.172 447.109 787.484 450.234C784.828 453.359 781.453 455.766 777.359 457.453C773.266 459.109 768.422 459.938 762.828 459.938C757.234 459.938 752.391 459.109 748.297 457.453C744.203 455.766 740.812 453.359 738.125 450.234C735.469 447.109 733.484 443.375 732.172 439.031C730.859 434.688 730.203 429.859 730.203 424.547C730.203 417.453 731.359 411.281 733.672 406.031C736.016 400.75 739.609 396.656 744.453 393.75C749.297 390.844 755.453 389.391 762.922 389.391C770.359 389.391 776.469 390.844 781.25 393.75C786.062 396.656 789.625 400.75 791.938 406.031C794.281 411.312 795.453 417.516 795.453 424.641ZM745.438 424.641C745.438 429.422 746.031 433.547 747.219 437.016C748.438 440.453 750.328 443.109 752.891 444.984C755.453 446.828 758.766 447.75 762.828 447.75C766.953 447.75 770.297 446.828 772.859 444.984C775.422 443.109 777.281 440.453 778.438 437.016C779.625 433.547 780.219 429.422 780.219 424.641C780.219 417.453 778.875 411.797 776.188 407.672C773.5 403.547 769.078 401.484 762.922 401.484C758.828 401.484 755.484 402.422 752.891 404.297C750.328 406.141 748.438 408.797 747.219 412.266C746.031 415.703 745.438 419.828 745.438 424.641ZM866.516 424.078C866.516 431.797 865.031 438.25 862.062 443.438C859.125 448.594 854.859 452.484 849.266 455.109C843.672 457.703 836.938 459 829.062 459H809.656V390.469H831.172C838.359 390.469 844.594 391.75 849.875 394.312C855.156 396.844 859.25 400.609 862.156 405.609C865.062 410.578 866.516 416.734 866.516 424.078ZM851.422 424.453C851.422 419.391 850.672 415.234 849.172 411.984C847.703 408.703 845.516 406.281 842.609 404.719C839.734 403.156 836.172 402.375 831.922 402.375H824.188V447H830.422C837.516 447 842.781 445.109 846.219 441.328C849.688 437.547 851.422 431.922 851.422 424.453Z" fill="black"/>
<path d="M563.737 497.709C566.847 497.709 569.409 498.084 571.425 498.834C573.456 499.584 574.964 500.717 575.948 502.232C576.933 503.748 577.425 505.662 577.425 507.975C577.425 509.537 577.128 510.904 576.534 512.076C575.94 513.248 575.159 514.24 574.19 515.053C573.222 515.865 572.175 516.529 571.05 517.045L581.128 531.975H573.065L564.886 518.826H561.018V531.975H553.753V497.709H563.737ZM563.222 503.662H561.018V512.92H563.362C565.768 512.92 567.487 512.521 568.518 511.725C569.565 510.912 570.089 509.725 570.089 508.162C570.089 506.537 569.526 505.381 568.401 504.693C567.292 504.006 565.565 503.662 563.222 503.662ZM595.612 505.232C599.128 505.232 601.823 505.998 603.698 507.529C605.573 509.06 606.511 511.389 606.511 514.514V531.975H601.518L600.136 528.412H599.948C599.198 529.35 598.433 530.115 597.651 530.709C596.87 531.303 595.972 531.74 594.956 532.021C593.94 532.303 592.706 532.443 591.253 532.443C589.706 532.443 588.315 532.146 587.081 531.553C585.862 530.959 584.901 530.053 584.198 528.834C583.495 527.6 583.143 526.037 583.143 524.146C583.143 521.365 584.12 519.318 586.073 518.006C588.026 516.678 590.956 515.943 594.862 515.803L599.409 515.662V514.514C599.409 513.139 599.05 512.131 598.331 511.49C597.612 510.85 596.612 510.529 595.331 510.529C594.065 510.529 592.823 510.709 591.604 511.068C590.386 511.428 589.167 511.881 587.948 512.428L585.581 507.6C586.972 506.865 588.526 506.287 590.245 505.865C591.979 505.443 593.768 505.232 595.612 505.232ZM599.409 519.834L596.643 519.928C594.331 519.99 592.722 520.404 591.815 521.17C590.925 521.935 590.479 522.943 590.479 524.193C590.479 525.287 590.8 526.068 591.44 526.537C592.081 526.99 592.917 527.217 593.948 527.217C595.479 527.217 596.768 526.764 597.815 525.857C598.878 524.951 599.409 523.662 599.409 521.99V519.834ZM632.175 524.193C632.175 525.975 631.753 527.482 630.909 528.717C630.081 529.935 628.839 530.865 627.183 531.506C625.526 532.131 623.464 532.443 620.995 532.443C619.167 532.443 617.597 532.326 616.284 532.092C614.987 531.857 613.675 531.467 612.347 530.92V525.014C613.768 525.654 615.292 526.185 616.917 526.607C618.558 527.014 619.995 527.217 621.229 527.217C622.62 527.217 623.612 527.014 624.206 526.607C624.815 526.185 625.12 525.639 625.12 524.967C625.12 524.529 624.995 524.139 624.745 523.795C624.511 523.435 623.995 523.037 623.198 522.6C622.401 522.146 621.151 521.56 619.448 520.842C617.808 520.154 616.456 519.459 615.393 518.756C614.347 518.053 613.565 517.225 613.05 516.271C612.55 515.303 612.3 514.076 612.3 512.592C612.3 510.17 613.237 508.35 615.112 507.131C617.003 505.896 619.526 505.279 622.683 505.279C624.308 505.279 625.854 505.443 627.323 505.771C628.808 506.1 630.331 506.623 631.893 507.342L629.737 512.498C628.44 511.935 627.214 511.475 626.058 511.115C624.917 510.756 623.753 510.576 622.565 510.576C621.518 510.576 620.729 510.717 620.198 510.998C619.667 511.279 619.401 511.709 619.401 512.287C619.401 512.709 619.534 513.084 619.8 513.412C620.081 513.74 620.612 514.107 621.393 514.514C622.19 514.904 623.354 515.412 624.886 516.037C626.37 516.646 627.659 517.287 628.753 517.959C629.847 518.615 630.69 519.435 631.284 520.42C631.878 521.389 632.175 522.646 632.175 524.193ZM652.331 505.279C655.284 505.279 657.667 506.428 659.479 508.725C661.308 511.021 662.222 514.389 662.222 518.826C662.222 521.795 661.792 524.295 660.933 526.326C660.073 528.342 658.886 529.865 657.37 530.896C655.854 531.928 654.112 532.443 652.143 532.443C650.878 532.443 649.792 532.287 648.886 531.975C647.979 531.646 647.206 531.232 646.565 530.732C645.925 530.217 645.37 529.67 644.901 529.092H644.526C644.651 529.717 644.745 530.357 644.808 531.014C644.87 531.67 644.901 532.31 644.901 532.935V543.506H637.753V505.771H643.565L644.573 509.17H644.901C645.37 508.467 645.94 507.818 646.612 507.225C647.284 506.631 648.089 506.162 649.026 505.818C649.979 505.459 651.081 505.279 652.331 505.279ZM650.034 510.998C648.784 510.998 647.792 511.256 647.058 511.771C646.323 512.287 645.784 513.06 645.44 514.092C645.112 515.123 644.933 516.428 644.901 518.006V518.779C644.901 520.467 645.058 521.896 645.37 523.068C645.698 524.24 646.237 525.131 646.987 525.74C647.753 526.35 648.8 526.654 650.128 526.654C651.222 526.654 652.12 526.35 652.823 525.74C653.526 525.131 654.05 524.24 654.393 523.068C654.753 521.881 654.933 520.435 654.933 518.732C654.933 516.17 654.534 514.24 653.737 512.943C652.94 511.646 651.706 510.998 650.034 510.998ZM675.276 495.506V503.99C675.276 504.975 675.245 505.951 675.183 506.92C675.136 507.889 675.073 508.639 674.995 509.17H675.276C675.964 508.092 676.901 507.178 678.089 506.428C679.276 505.662 680.815 505.279 682.706 505.279C685.643 505.279 688.026 506.428 689.854 508.725C691.683 511.021 692.597 514.389 692.597 518.826C692.597 521.81 692.175 524.318 691.331 526.35C690.487 528.365 689.308 529.889 687.792 530.92C686.276 531.935 684.518 532.443 682.518 532.443C680.597 532.443 679.081 532.1 677.972 531.412C676.862 530.725 675.964 529.951 675.276 529.092H674.784L673.589 531.975H668.128V495.506H675.276ZM680.409 510.998C679.159 510.998 678.167 511.256 677.433 511.771C676.698 512.287 676.159 513.06 675.815 514.092C675.487 515.123 675.308 516.428 675.276 518.006V518.779C675.276 521.326 675.651 523.279 676.401 524.639C677.151 525.982 678.518 526.654 680.503 526.654C681.972 526.654 683.136 525.975 683.995 524.615C684.87 523.256 685.308 521.295 685.308 518.732C685.308 516.17 684.87 514.24 683.995 512.943C683.12 511.646 681.925 510.998 680.409 510.998ZM709.308 505.279C711.729 505.279 713.815 505.748 715.565 506.685C717.315 507.607 718.667 508.951 719.62 510.717C720.573 512.482 721.05 514.639 721.05 517.185V520.654H704.151C704.229 522.67 704.831 524.256 705.956 525.412C707.097 526.553 708.675 527.123 710.69 527.123C712.362 527.123 713.893 526.951 715.284 526.607C716.675 526.264 718.104 525.748 719.573 525.06V530.592C718.276 531.232 716.917 531.701 715.495 531.998C714.089 532.295 712.378 532.443 710.362 532.443C707.737 532.443 705.409 531.959 703.378 530.99C701.362 530.021 699.776 528.545 698.62 526.56C697.479 524.576 696.909 522.076 696.909 519.06C696.909 515.998 697.425 513.451 698.456 511.42C699.503 509.373 700.956 507.842 702.815 506.826C704.675 505.795 706.839 505.279 709.308 505.279ZM709.354 510.365C707.964 510.365 706.808 510.81 705.886 511.701C704.979 512.592 704.456 513.99 704.315 515.896H714.347C714.331 514.834 714.136 513.889 713.761 513.06C713.401 512.232 712.854 511.576 712.12 511.092C711.401 510.607 710.479 510.365 709.354 510.365ZM741.487 505.279C741.847 505.279 742.261 505.303 742.729 505.35C743.214 505.381 743.604 505.428 743.901 505.49L743.362 512.193C743.128 512.115 742.792 512.06 742.354 512.029C741.933 511.982 741.565 511.959 741.253 511.959C740.331 511.959 739.433 512.076 738.558 512.31C737.698 512.545 736.925 512.928 736.237 513.459C735.55 513.975 735.003 514.662 734.597 515.521C734.206 516.365 734.011 517.404 734.011 518.639V531.975H726.862V505.771H732.276L733.331 510.178H733.683C734.198 509.287 734.839 508.475 735.604 507.74C736.386 506.99 737.268 506.396 738.253 505.959C739.253 505.506 740.331 505.279 741.487 505.279ZM763.284 505.279C763.643 505.279 764.058 505.303 764.526 505.35C765.011 505.381 765.401 505.428 765.698 505.49L765.159 512.193C764.925 512.115 764.589 512.06 764.151 512.029C763.729 511.982 763.362 511.959 763.05 511.959C762.128 511.959 761.229 512.076 760.354 512.31C759.495 512.545 758.722 512.928 758.034 513.459C757.347 513.975 756.8 514.662 756.393 515.521C756.003 516.365 755.808 517.404 755.808 518.639V531.975H748.659V505.771H754.073L755.128 510.178H755.479C755.995 509.287 756.636 508.475 757.401 507.74C758.183 506.99 759.065 506.396 760.05 505.959C761.05 505.506 762.128 505.279 763.284 505.279ZM766.706 505.771H774.534L779.479 520.514C779.636 520.982 779.768 521.459 779.878 521.943C779.987 522.428 780.081 522.928 780.159 523.443C780.237 523.959 780.3 524.498 780.347 525.06H780.487C780.581 524.217 780.706 523.428 780.862 522.693C781.034 521.959 781.245 521.232 781.495 520.514L786.347 505.771H794.011L782.925 535.326C782.253 537.139 781.378 538.646 780.3 539.85C779.222 541.068 777.979 541.982 776.573 542.592C775.183 543.201 773.651 543.506 771.979 543.506C771.167 543.506 770.464 543.459 769.87 543.365C769.276 543.287 768.768 543.201 768.347 543.107V537.435C768.675 537.514 769.089 537.584 769.589 537.646C770.089 537.709 770.612 537.74 771.159 537.74C772.159 537.74 773.018 537.529 773.737 537.107C774.456 536.685 775.058 536.115 775.542 535.396C776.026 534.693 776.409 533.92 776.69 533.076L777.112 531.787L766.706 505.771ZM809.292 497.709C813.714 497.709 816.94 498.662 818.972 500.568C821.003 502.459 822.018 505.068 822.018 508.396C822.018 509.896 821.792 511.334 821.339 512.709C820.886 514.068 820.143 515.279 819.112 516.342C818.097 517.404 816.737 518.248 815.034 518.873C813.331 519.482 811.229 519.787 808.729 519.787H805.612V531.975H798.347V497.709H809.292ZM808.917 503.662H805.612V513.834H808.003C809.362 513.834 810.542 513.654 811.542 513.295C812.542 512.935 813.315 512.373 813.862 511.607C814.409 510.842 814.683 509.857 814.683 508.654C814.683 506.967 814.214 505.717 813.276 504.904C812.339 504.076 810.886 503.662 808.917 503.662ZM835.073 505.771V531.975H827.925V505.771H835.073ZM831.511 495.506C832.573 495.506 833.487 495.756 834.253 496.256C835.018 496.74 835.401 497.654 835.401 498.998C835.401 500.326 835.018 501.248 834.253 501.764C833.487 502.264 832.573 502.514 831.511 502.514C830.433 502.514 829.511 502.264 828.745 501.764C827.995 501.248 827.62 500.326 827.62 498.998C827.62 497.654 827.995 496.74 828.745 496.256C829.511 495.756 830.433 495.506 831.511 495.506ZM877.964 524.873H873.839V531.975H866.761V524.873H852.136V519.834L867.159 497.709H873.839V519.248H877.964V524.873ZM866.761 519.248V513.435C866.761 512.889 866.768 512.24 866.784 511.49C866.815 510.74 866.847 509.99 866.878 509.24C866.909 508.49 866.94 507.826 866.972 507.248C867.018 506.654 867.05 506.24 867.065 506.006H866.878C866.581 506.646 866.268 507.271 865.94 507.881C865.612 508.475 865.229 509.1 864.792 509.756L858.511 519.248H866.761Z" fill="black"/>
</svg>
